<?xml version="1.0" encoding="utf-8"?>
<!-- Generator: Adobe Illustrator 23.0.1, SVG Export Plug-In . SVG Version: 6.00 Build 0)  -->
<svg version="1.1" xmlns="http://www.w3.org/2000/svg" xmlns:xlink="http://www.w3.org/1999/xlink" x="0px" y="0px"
	 viewBox="0 0 168 168" style="enable-background:new 0 0 168 168;" xml:space="preserve">
<style type="text/css">
	.st0{display:none;}
	.st1{display:inline;fill:#1ED760;}
	.st2{display:inline;fill:#606060;}
	.st3{fill:url(#SVGID_1_);}
	.st4{fill:#1ED760;}
	.st5{fill:#16A349;}
	.st6{fill:#20EF6B;}
</style>
<g id="Layer_1" class="st0">
	<path class="st1" d="M84,0.3C37.7,0.3,0.3,37.8,0.3,84c0,46.3,37.5,83.7,83.7,83.7c46.3,0,83.7-37.5,83.7-83.7
		C167.7,37.8,130.3,0.3,84,0.3C84,0.3,84,0.3,84,0.3z"/>
	<path class="st2" d="M122.4,121.1c-1.5,2.5-4.7,3.2-7.2,1.7c-19.7-12-44.4-14.7-73.6-8.1c-2.8,0.6-5.6-1.1-6.2-3.9
		c-0.6-2.8,1.1-5.6,3.9-6.3c31.9-7.3,59.3-4.2,81.3,9.3C123.1,115.4,123.9,118.6,122.4,121.1z"/>
	<path class="st2" d="M132.6,98.3c-1.9,3.1-5.9,4-9,2.2c-22.5-13.8-56.8-17.8-83.4-9.8c-3.5,1-7.1-0.9-8.1-4.3
		c-1-3.5,0.9-7.1,4.4-8.1c30.4-9.2,68.2-4.8,94.1,11.1C133.6,91.2,134.5,95.2,132.6,98.3L132.6,98.3z"/>
	<path class="st2" d="M133.5,74.5c-27-16-71.5-17.5-97.3-9.7c-4.1,1.3-8.5-1.1-9.8-5.2c-1.3-4.1,1.1-8.5,5.2-9.8
		c29.6-9,78.8-7.2,109.8,11.2c3.7,2.2,4.9,7,2.7,10.7C142.1,75.5,137.2,76.7,133.5,74.5L133.5,74.5z"/>
</g>
<g id="Layer_2">
	<linearGradient id="SVGID_1_" gradientUnits="userSpaceOnUse" x1="83.9965" y1="0.277" x2="83.9965" y2="167.76">
		<stop  offset="0" style="stop-color:#20EF6B"/>
		<stop  offset="1" style="stop-color:#1ED760"/>
	</linearGradient>
	<path class="st3" d="M84,0.3C37.7,0.3,0.3,37.8,0.3,84c0,46.3,37.5,83.7,83.7,83.7c46.3,0,83.7-37.5,83.7-83.7
		C167.7,37.8,130.3,0.3,84,0.3C84,0.3,84,0.3,84,0.3z"/>
	<g>
		
			<image style="overflow:visible;opacity:0.2;" width="164" height="153" xlink:href="962F4836.png"  transform="matrix(1 0 0 1 10.2864 16)">
		</image>
		<g>
			<path d="M66.4,36.4L66.4,36.4c4.2-0.8,5.8,2.2,4.2,7.1c-7.9,23.1-6.5,49.5,4.5,73.6c2.3,5,1.5,8.8-2.4,8.5c0,0,0,0,0,0
				c-3.9-0.2-9.3-4.2-11.5-9c-10.9-23.1-12.5-48.4-5.3-70.6C57.2,41.5,62.2,37.3,66.4,36.4z M35.7,99.4
				C35.7,99.4,35.7,99.4,35.7,99.4c3.8-0.1,7.9,3.7,9.7,8.5c1.1,2.8,2.3,5.6,3.6,8.4c2.2,4.6,1.4,8-2.5,7.7c0,0,0,0,0,0
				c-3.8-0.3-9.2-4-11.4-8.3c-1.3-2.6-2.5-5.3-3.6-8C29.8,103.2,31.8,99.4,35.7,99.4z M87.9,78C87.9,78,87.9,78,87.9,78
				c4.9-0.5,8.9,3.7,9.6,9.4c1.2,10.2,3.9,20.5,8.1,30.4c2.3,5.5,0.8,9.7-4.1,9.4c0,0,0,0,0,0c-4.8-0.2-11.1-4.5-13.4-9.7
				c-4.1-9.4-6.9-19.2-8.3-28.9C79.1,83.2,83,78.4,87.9,78z M117.3,54.1C117.3,54.1,117.3,54.1,117.3,54.1c5.2-0.8,8.4,3.3,7.9,9.3
				c-1.7,18,0.9,36.8,7.9,54.6c2.3,5.9,0.7,10.5-4.3,10.3c0,0,0,0,0,0c-5-0.2-11.4-4.8-13.7-10.4c-7-17-9.7-34.8-8.4-52.1
				C107.1,60.1,112.2,54.9,117.3,54.1z"/>
		</g>
	</g>
</g>
</svg>
