<?xml version="1.0" encoding="utf-8"?>
<!-- Generator: Adobe Illustrator 23.0.1, SVG Export Plug-In . SVG Version: 6.00 Build 0)  -->
<svg version="1.1" xmlns="http://www.w3.org/2000/svg" xmlns:xlink="http://www.w3.org/1999/xlink" x="0px" y="0px"
	 viewBox="0 0 168 168" style="enable-background:new 0 0 168 168;" xml:space="preserve">
<style type="text/css">
	.st0{display:none;}
	.st1{display:inline;fill:#1ED760;}
	.st2{display:inline;fill:#606060;}
	.st3{fill:url(#SVGID_1_);}
	.st4{fill:#1ED760;}
	.st5{fill:#16A349;}
	.st6{fill:#20EF6B;}
</style>
<g id="Layer_1" class="st0">
	<path class="st1" d="M84,0.3C37.7,0.3,0.3,37.8,0.3,84c0,46.3,37.5,83.7,83.7,83.7c46.3,0,83.7-37.5,83.7-83.7
		C167.7,37.8,130.3,0.3,84,0.3C84,0.3,84,0.3,84,0.3z"/>
	<path class="st2" d="M122.4,121.1c-1.5,2.5-4.7,3.2-7.2,1.7c-19.7-12-44.4-14.7-73.6-8.1c-2.8,0.6-5.6-1.1-6.2-3.9
		c-0.6-2.8,1.1-5.6,3.9-6.3c31.9-7.3,59.3-4.2,81.3,9.3C123.1,115.4,123.9,118.6,122.4,121.1z"/>
	<path class="st2" d="M132.6,98.3c-1.9,3.1-5.9,4-9,2.2c-22.5-13.8-56.8-17.8-83.4-9.8c-3.5,1-7.1-0.9-8.1-4.3
		c-1-3.5,0.9-7.1,4.4-8.1c30.4-9.2,68.2-4.8,94.1,11.1C133.6,91.2,134.5,95.2,132.6,98.3L132.6,98.3z"/>
	<path class="st2" d="M133.5,74.5c-27-16-71.5-17.5-97.3-9.7c-4.1,1.3-8.5-1.1-9.8-5.2c-1.3-4.1,1.1-8.5,5.2-9.8
		c29.6-9,78.8-7.2,109.8,11.2c3.7,2.2,4.9,7,2.7,10.7C142.1,75.5,137.2,76.7,133.5,74.5L133.5,74.5z"/>
</g>
<g id="Layer_2">
	<linearGradient id="SVGID_1_" gradientUnits="userSpaceOnUse" x1="83.9965" y1="0.277" x2="83.9965" y2="167.76">
		<stop  offset="0" style="stop-color:#20EF6B"/>
		<stop  offset="1" style="stop-color:#1ED760"/>
	</linearGradient>
	<path class="st3" d="M84,0.3C37.7,0.3,0.3,37.8,0.3,84c0,46.3,37.5,83.7,83.7,83.7c46.3,0,83.7-37.5,83.7-83.7
		C167.7,37.8,130.3,0.3,84,0.3C84,0.3,84,0.3,84,0.3z"/>
	<g>
		
			<image style="overflow:visible;opacity:0.2;" width="169" height="159" xlink:href="962F4835.png"  transform="matrix(1 0 0 1 9 13)">
		</image>
		<g>
			<path d="M82.3,33.9C82.3,33.9,82.3,33.9,82.3,33.9c5.8,1.9,8.3,7.2,6,12.1c-10.8,23.7-14.7,50-11,75.8c0.7,5.3-2.1,9.7-6.8,9.7
				c0,0,0,0,0,0c-4.7,0-9.9-4.6-11-10.3c-5.1-27.4-2.2-55.5,8.1-81.2C69.7,34.6,76.5,32,82.3,33.9z M38.1,98.4
				C38.1,98.4,38.1,98.4,38.1,98.4c5.3,0.7,9.8,5.9,10.6,11.8c0.5,3.5,1.1,7.1,1.8,10.6c1.2,5.8-1.4,10.4-6.3,10.3c0,0,0,0,0,0
				c-4.9-0.1-10.5-5.2-12-11.4c-0.9-3.7-1.6-7.5-2.3-11.2C28.8,102.2,32.8,97.7,38.1,98.4z M96.7,85.9
				C96.7,85.9,96.7,85.9,96.7,85.9c5.3,0.8,8.7,5.1,7.9,9.9c-1.4,8.7-1.8,17.5-1.2,26.3c0.3,4.8-2.8,8.9-7.4,9.1c0,0,0,0,0,0
				c-4.6,0.2-9.2-4-9.9-9.2c-1.1-9.4-1.2-18.8-0.3-28.1C86.3,88.7,91.3,85.2,96.7,85.9z M131.1,73.9
				C131.1,73.9,131.1,73.9,131.1,73.9c5.4,1,8.1,4.9,6.3,9c-5.3,12.4-8.3,25.5-8.8,38.8c-0.2,4.4-3.6,8.2-8,8.5c0,0,0,0,0,0
				c-4.4,0.3-8.6-3.4-8.8-8.1c-0.5-14.2,1.7-28.4,6.3-41.9C119.7,75.7,125.7,72.9,131.1,73.9z"/>
		</g>
	</g>
</g>
</svg>
